<svg width="24" height="25" viewBox="0 0 24 25" fill="none" xmlns="http://www.w3.org/2000/svg">
<path fill-rule="evenodd" clip-rule="evenodd" d="M1.84615 12.5C1.84615 6.89219 6.39219 2.34615 12 2.34615C17.6078 2.34615 22.1538 6.89219 22.1538 12.5C22.1538 18.1078 17.6078 22.6538 12 22.6538C6.39219 22.6538 1.84615 18.1078 1.84615 12.5ZM12 0.5C5.37258 0.5 0 5.87258 0 12.5C0 19.1274 5.37258 24.5 12 24.5C18.6274 24.5 24 19.1274 24 12.5C24 5.87258 18.6274 0.5 12 0.5ZM18.184 9.46642C18.5483 9.10978 18.5545 8.52535 18.1978 8.16107C17.8412 7.79678 17.2567 7.79059 16.8925 8.14723L10.0888 14.8081L8.11297 12.268C7.79997 11.8657 7.22002 11.7932 6.81762 12.1062C6.41522 12.4192 6.34276 12.9992 6.65576 13.4015L9.90191 17.5747L18.184 9.46642Z" fill="#00A861"/>
</svg>
