<?xml version="1.0" encoding="UTF-8"?>
<svg width="400px" height="98px" viewBox="0 0 400 98" version="1.1" xmlns="http://www.w3.org/2000/svg" xmlns:xlink="http://www.w3.org/1999/xlink">
    <title>RenovaLogo</title>
    <defs>
        <linearGradient x1="47.2276265%" y1="84.8312072%" x2="52.6264591%" y2="7.13261887%" id="linearGradient-1">
            <stop stop-color="#F6CD10" offset="44%"></stop>
            <stop stop-color="#F6C417" offset="75%"></stop>
            <stop stop-color="#F7B920" offset="100%"></stop>
        </linearGradient>
        <linearGradient x1="0%" y1="50.030581%" x2="100%" y2="50.030581%" id="linearGradient-2">
            <stop stop-color="#FAE410" offset="0%"></stop>
            <stop stop-color="#F6CD10" offset="58%"></stop>
            <stop stop-color="#F7B920" offset="91%"></stop>
        </linearGradient>
        <linearGradient x1="0%" y1="50.0372301%" x2="100%" y2="50.0372301%" id="linearGradient-3">
            <stop stop-color="#F6CD10" offset="20%"></stop>
            <stop stop-color="#F7B920" offset="100%"></stop>
        </linearGradient>
        <linearGradient x1="87.1809119%" y1="-18.514947%" x2="37.9863563%" y2="71.0221794%" id="linearGradient-4">
            <stop stop-color="#F6CD10" offset="24%"></stop>
            <stop stop-color="#F7B920" offset="100%"></stop>
        </linearGradient>
        <linearGradient x1="84.7077899%" y1="20.6185567%" x2="46.1846047%" y2="101.97221%" id="linearGradient-5">
            <stop stop-color="#FAE410" offset="0%"></stop>
            <stop stop-color="#F6CD10" offset="58%"></stop>
            <stop stop-color="#F7B920" offset="92%"></stop>
        </linearGradient>
        <linearGradient x1="70.4696439%" y1="107.48484%" x2="20.9833277%" y2="37.1662947%" id="linearGradient-6">
            <stop stop-color="#FAE410" offset="0%"></stop>
            <stop stop-color="#F6CD10" offset="59%"></stop>
            <stop stop-color="#F7B920" offset="93%"></stop>
        </linearGradient>
    </defs>
    <g id="Page-1" stroke="none" stroke-width="1" fill="none" fill-rule="evenodd">
        <g id="Group" fill-rule="nonzero">
            <g id="RenovaLogo">
                <polygon id="Path" fill="url(#linearGradient-1)" points="37.3818182 56.4909091 17.0181818 69.4545455 -1.39524755e-13 42.4545455 5.47272727 33.5454545 23.7090909 33.5454545"></polygon>
                <polygon id="Path" fill="url(#linearGradient-2)" points="7.96363636 29.7272727 55.1636364 29.7272727 37.3636364 0 37.3636364 5.41818182 23.4 5.41818182"></polygon>
                <polygon id="Path" fill="url(#linearGradient-3)" points="57.8181818 29.6909091 57.6909091 5.34545455 89.6181818 5.30909091 94.2363636 15.1636364 85.0909091 29.7272727"></polygon>
                <polygon id="Path" fill="url(#linearGradient-4)" points="70.7636364 60.2727273 91.4 70.7636364 77.3818182 97.9454545 65.8181818 97.9818182 57.1090909 83.3636364"></polygon>
                <polygon id="Path" fill="url(#linearGradient-5)" points="96.1454545 17.5272727 72.0181818 58.0909091 106.654545 58 102 55.2363636 109.145455 43.2181818"></polygon>
                <polygon id="Path" fill="url(#linearGradient-6)" points="61.9272727 97.9818182 38.2363636 58.0909091 20.5272727 87.7818182 26.4545455 85.8181818 33.6545455 97.9818182"></polygon>
                <polygon id="Path" fill="#4B616F" points="131.981818 74.7090909 134.690909 74.7090909 134.690909 97.5636364 131.981818 97.5636364"></polygon>
                <polygon id="Path" fill="#4B616F" points="155.436364 82.6 153.618182 79.3090909 153.472727 79.3090909 153.8 82.6 153.8 97.5636364 151.254545 97.5636364 151.254545 74.3454545 152.727273 74.3454545 163.636364 89.6 165.454545 92.7272727 165.618182 92.7272727 165.254545 89.6 165.254545 74.7090909 167.818182 74.7090909 167.818182 97.9090909 166.363636 97.9090909"></polygon>
                <path d="M183.727273,74.7090909 C184.145455,74.7090909 184.618182,74.6 185.127273,74.5636364 L186.727273,74.5636364 L188.345455,74.5636364 L189.836364,74.5636364 C191.459512,74.5269869 193.073418,74.8176135 194.581818,75.4181818 C195.858546,75.9385623 196.997397,76.7475818 197.909091,77.7818182 C198.80074,78.8444808 199.457538,80.0837227 199.836364,81.4181818 C200.286391,82.9343915 200.507015,84.5094046 200.490909,86.0909091 C200.490844,87.5971319 200.282819,89.0961335 199.872727,90.5454545 C199.497252,91.9271834 198.848047,93.2194108 197.963636,94.3454545 C197.029339,95.4302962 195.860438,96.2883193 194.545455,96.8545455 C192.950933,97.5640729 191.217232,97.9058418 189.472727,97.8545455 L188.127273,97.8545455 L186.4,97.8545455 L184.781818,97.8545455 C184.41851,97.8763833 184.054218,97.8763833 183.690909,97.8545455 L183.727273,74.7090909 Z M189.909091,76.8545455 L188.981818,76.8545455 L187.981818,76.8545455 L187.072727,76.8545455 L186.436364,76.8545455 L186.436364,95.3090909 L187.072727,95.3090909 L188.018182,95.3090909 L188.963636,95.3090909 L189.581818,95.3090909 C190.904394,95.3549932 192.219044,95.0870787 193.418182,94.5272727 C194.407065,94.0439702 195.257674,93.3184506 195.890909,92.4181818 C196.53185,91.5049571 196.98317,90.4724852 197.218182,89.3818182 C197.480344,88.2181122 197.614475,87.0292287 197.618182,85.8363636 C197.612063,84.7537391 197.490158,83.6748748 197.254545,82.6181818 C197.028557,81.5795145 196.609138,80.592647 196.018182,79.7090909 C195.401387,78.8188875 194.585956,78.0843774 193.636364,77.5636364 C192.473377,77.0174727 191.191384,76.7735814 189.909091,76.8545455 L189.909091,76.8545455 Z" id="Shape" fill="#4B616F"></path>
                <path d="M228.654545,74.7090909 L231.272727,74.7090909 L231.272727,89.9454545 C231.307945,91.1803284 231.123251,92.4116237 230.727273,93.5818182 C230.407139,94.5087822 229.885541,95.3532739 229.2,96.0545455 C228.514285,96.6983588 227.694734,97.1826384 226.8,97.4727273 C225.792211,97.7789252 224.744176,97.9321467 223.690909,97.9272727 C221.500747,98.0884386 219.327429,97.4416176 217.581818,96.1090909 C216.117838,94.6507284 215.366883,92.6238149 215.527273,90.5636364 L215.527273,74.7090909 L218.181818,74.7090909 L218.181818,89.2545455 C218.167932,90.241239 218.284082,91.2254629 218.527273,92.1818182 C218.722735,92.8942694 219.077057,93.5531837 219.563636,94.1090909 C220.02959,94.606127 220.619499,94.9701138 221.272727,95.1636364 C222.05142,95.3941853 222.860737,95.5045467 223.672727,95.4909091 C225.091663,95.6258167 226.491717,95.0873345 227.454545,94.0363636 C228.341925,92.6076078 228.743715,90.9302935 228.6,89.2545455 L228.654545,74.7090909 Z" id="Path" fill="#4B616F"></path>
                <path d="M257.581818,91.7454545 C257.612716,90.9215812 257.31891,90.1185113 256.763636,89.5090909 C256.173497,88.8914326 255.485464,88.3754074 254.727273,87.9818182 C253.864427,87.5062848 252.971644,87.0872231 252.054545,86.7272727 C251.127288,86.3386125 250.238544,85.8638042 249.4,85.3090909 C248.594517,84.7552291 247.903156,84.0515223 247.363636,83.2363636 C246.784747,82.3057346 246.499632,81.2222996 246.545455,80.1272727 C246.463863,78.5099799 247.13513,76.9459277 248.363636,75.8909091 C249.882154,74.7494525 251.758693,74.1884254 253.654545,74.3090909 C254.872662,74.3043801 256.089034,74.4016898 257.290909,74.6 C258.171009,74.7339065 259.027892,74.9909714 259.836364,75.3636364 L259.036364,77.7818182 C258.327229,77.4595622 257.582751,77.2215734 256.818182,77.0727273 C255.744957,76.8274469 254.646238,76.7114709 253.545455,76.7272727 C252.385375,76.6442169 251.234792,76.9868064 250.309091,77.6909091 C249.634132,78.2534365 249.241628,79.0850132 249.236364,79.9636364 C249.210504,80.754142 249.505631,81.5214704 250.054545,82.0909091 C250.650236,82.6973393 251.337378,83.2065606 252.090909,83.6 C252.909091,84.0545455 253.8,84.4909091 254.745455,84.9272727 C255.679424,85.3499069 256.573871,85.8549348 257.418182,86.4363636 C258.215455,86.9999415 258.905166,87.7019684 259.454545,88.5090909 C260.021609,89.4045642 260.30665,90.4497123 260.272727,91.5090909 C260.284357,92.4210592 260.104739,93.3253428 259.745455,94.1636364 C259.391236,94.9505873 258.855346,95.6422595 258.181818,96.1818182 C257.45549,96.7720519 256.622065,97.2165452 255.727273,97.4909091 C254.666765,97.8122692 253.56249,97.9656408 252.454545,97.9454545 C251.10001,97.967525 249.746962,97.8456288 248.418182,97.5818182 C247.558071,97.4012435 246.722072,97.120543 245.927273,96.7454545 L246.854545,94.3272727 C247.559462,94.6812781 248.304127,94.9498458 249.072727,95.1272727 C250.146557,95.4088319 251.253624,95.5433926 252.363636,95.5272727 C253.047377,95.528301 253.729524,95.4613045 254.4,95.3272727 C254.977102,95.1978503 255.525571,94.9636726 256.018182,94.6363636 C256.465471,94.3287876 256.838224,93.9249721 257.109091,93.4545455 C257.41269,92.9356844 257.575634,92.3465791 257.581818,91.7454545 L257.581818,91.7454545 Z" id="Path" fill="#4B616F"></path>
                <polygon id="Path" fill="#4B616F" points="289.8 77.1272727 282.690909 77.1272727 282.690909 97.5636364 280 97.5636364 280 77.1272727 272.872727 77.1272727 272.872727 74.7090909 289.818182 74.7090909"></polygon>
                <path d="M303.636364,74.9272727 C304.454545,74.7818182 305.454545,74.6727273 306.490909,74.5818182 C307.527273,74.4909091 308.545455,74.4361822 309.436364,74.4361822 C310.397533,74.431086 311.355875,74.5409595 312.290909,74.7636364 C313.149133,74.9663162 313.958672,75.3370973 314.672727,75.8545455 C315.370425,76.3629608 315.937482,77.0297203 316.327273,77.8 C317.377858,80.1980669 317.058425,82.975742 315.490909,85.0727273 C314.533236,86.1655066 313.264438,86.9394731 311.854545,87.2909091 L313.418182,88.4909091 L319.090909,97.5818182 L315.818182,97.5818182 L309.527273,87.7090909 L306.327273,87.2727273 L306.327273,97.6181818 L303.636364,97.6181818 L303.636364,74.9272727 Z M309.509091,76.7454545 L308.636364,76.7454545 C308.339695,76.7265373 308.042123,76.7265373 307.745455,76.7454545 L306.945455,76.7454545 C306.741386,76.754021 306.539478,76.7907315 306.345455,76.8545455 L306.345455,85.4545455 L308.890909,85.4545455 C310.191928,85.4941472 311.469809,85.1043936 312.527273,84.3454545 C313.556969,83.4986858 314.107053,82.2015729 314,80.8727273 C314.031516,79.7818811 313.594755,78.7296839 312.8,77.9818182 C311.891744,77.1740334 310.705396,76.7503377 309.490909,76.8 L309.509091,76.7454545 Z" id="Shape" fill="#4B616F"></path>
                <polygon id="Path" fill="#4B616F" points="334.109091 74.7090909 336.818182 74.7090909 336.818182 97.5636364 334.109091 97.5636364"></polygon>
                <path d="M364.272727,91.2181818 L355.890909,91.2181818 L353.618182,97.5636364 L350.909091,97.5636364 L359.563636,74.3454545 L360.8,74.3454545 L369.490909,97.5636364 L366.618182,97.5636364 L364.272727,91.2181818 Z M356.781818,88.8727273 L363.472727,88.8727273 L360.927273,81.9272727 L360.127273,78.4545455 L360.127273,78.4545455 L359.309091,81.9818182 L356.781818,88.8727273 Z" id="Shape" fill="#4B616F"></path>
                <polygon id="Path" fill="#4B616F" points="396.490909 97.5636364 382.981818 97.5636364 382.981818 74.7090909 385.690909 74.7090909 385.690909 95.1454545 396.490909 95.1454545"></polygon>
                <path d="M176.036364,60.7818182 L159.672727,60.7818182 L147.872727,40.4545455 L145.909091,40.1090909 L145.909091,60.7818182 L131.763636,60.7818182 L131.763636,6.12727273 L133.454545,5.83636364 C134.6,5.63636364 135.836364,5.45454545 137.090909,5.27272727 C138.345455,5.09090909 139.763636,4.94545455 141.109091,4.85454545 C142.454545,4.76363636 143.709091,4.67272727 144.963636,4.63636364 C148.61166,4.41391579 152.273187,4.62140234 155.872727,5.25454545 C158.301447,5.68146248 160.634801,6.53723075 162.763636,7.78181818 C164.929655,9.01676451 166.734882,10.7969192 168,12.9454545 C169.346743,15.4310569 170.011679,18.2288045 169.927273,21.0545455 C170.088299,25.1520187 168.914262,29.1909633 166.581818,32.5636364 C165.202123,34.4468495 163.443112,36.0200497 161.418182,37.1818182 L162.181818,37.6727273 L176.036364,60.7818182 Z M145.909091,28.8 L148.127273,28.8 C150.05982,28.9152614 151.976592,28.3913437 153.581818,27.3090909 C154.865963,26.0991825 155.500113,24.3518962 155.290909,22.6 C155.388586,21.2399439 154.875422,19.9070494 153.890909,18.9636364 C152.565146,17.956973 150.913236,17.477595 149.254545,17.6181818 C148.254545,17.6181818 147.272727,17.6181818 146.290909,17.6181818 L145.927273,17.6181818 L145.909091,28.8 Z" id="Shape" fill="#4B616F"></path>
                <polygon id="Path" fill="#4B616F" points="211.654545 60.7818182 176.709091 60.7818182 176.709091 5.29090909 211.254545 5.29090909 211.254545 18.3272727 190.909091 18.3272727 190.909091 26.2181818 209.490909 26.2181818 209.490909 39.2545455 190.909091 39.2545455 190.909091 47.7454545 211.709091 47.7454545"></polygon>
                <polygon id="Path" fill="#4B616F" points="259.327273 61.1454545 248.890909 61.1454545 229.4 33.7454545 229.4 60.7818182 215.781818 60.7818182 215.781818 4.92727273 226.218182 4.92727273 245.690909 32.3454545 245.690909 5.29090909 259.327273 5.29090909"></polygon>
                <path d="M287.036364,61.8181818 C283.403414,61.8946574 279.797776,61.1747711 276.472727,59.7090909 C273.492244,58.351589 270.893856,56.2778752 268.909091,53.6727273 C266.894268,50.9471792 265.419289,47.8614496 264.563636,44.5818182 C263.596413,40.8354155 263.125716,36.9781498 263.163636,33.1090909 C263.163636,24.0181818 265.236364,17 269.290909,12.0181818 C273.345455,7.03636364 279.418182,4.32727273 287.036364,4.32727273 C290.639515,4.25585461 294.214462,4.97580915 297.509091,6.43636364 C300.494194,7.80282007 303.102403,9.87441178 305.109091,12.4727273 C307.149425,15.1877605 308.638068,18.2762318 309.490909,21.5636364 C310.456894,25.3102734 310.92757,29.1673752 310.890909,33.0363636 C310.890909,42.1272727 308.818182,49.1454545 304.727273,54.1272727 C300.636364,59.1090909 294.545455,61.8181818 287.036364,61.8181818 Z M287.036364,17.3090909 C284.382791,17.1855288 281.863103,18.479984 280.418182,20.7090909 C278.709091,23.2181818 277.836364,27.3636364 277.836364,33.0363636 C277.81518,35.3059311 278.022283,37.5718765 278.454545,39.8 C278.793848,41.5519236 279.407453,43.2393388 280.272727,44.8 C280.95032,46.0015035 281.911603,47.0189662 283.072727,47.7636364 C284.284776,48.4682578 285.671686,48.8149854 287.072727,48.7636364 C289.693407,48.8829119 292.187144,47.6291545 293.654545,45.4545455 C295.363636,43.0181818 296.236364,38.8363636 296.236364,33.0363636 C296.250234,30.82816 296.049288,28.6238424 295.636364,26.4545455 C295.332705,24.6828781 294.749691,22.9706561 293.909091,21.3818182 C293.267707,20.146514 292.315123,19.099925 291.145455,18.3454545 C289.903272,17.6136105 288.477046,17.2538985 287.036364,17.3090909 Z" id="Shape" fill="#4B616F"></path>
                <polygon id="Path" fill="#4B616F" points="336.854545 61.1454545 326.818182 61.1454545 306.054545 5.29090909 322.127273 5.29090909 332.527273 35.8 342.472727 5.29090909 357.472727 5.29090909"></polygon>
                <path d="M396.945455,60.7818182 L382.036364,60.7818182 L377.927273,49.4 L365.036364,49.4 L361.127273,60.7818182 L346.727273,60.7818182 L366.727273,4.92727273 L377.018182,4.92727273 L396.945455,60.7818182 Z M368.963636,37.2363636 L374.327273,37.2363636 L371.618182,29.0909091 L368.963636,37.2363636 Z" id="Shape" fill="#4B616F"></path>
                <path d="M389.909091,9.90909091 C389.895326,9.21718942 390.025342,8.52996402 390.290909,7.89090909 C390.517697,7.32573076 390.865188,6.81690443 391.309091,6.4 C391.750453,6.00473348 392.262441,5.69630663 392.818182,5.49090909 C393.402305,5.28542363 394.017152,5.18089957 394.636364,5.18181218 C395.255227,5.18498059 395.869403,5.28939043 396.454545,5.49090909 C397.006835,5.69217401 397.51362,6.00118941 397.945455,6.4 C398.389358,6.81690443 398.736849,7.32573076 398.963636,7.89090909 C399.214406,8.53373813 399.337906,9.21916217 399.327273,9.90909091 C399.341037,10.6009924 399.211022,11.2882178 398.945455,11.9272727 C398.725158,12.490656 398.376535,12.9949142 397.927273,13.4 C397.490373,13.8012668 396.977141,14.1104427 396.418182,14.3090909 C395.837485,14.5293548 395.221055,14.640312 394.6,14.6363636 C393.979052,14.6390703 393.362848,14.5281535 392.781818,14.3090909 C392.226176,14.1148523 391.718033,13.8050088 391.290909,13.4 C390.847391,12.9898981 390.499745,12.4870539 390.272727,11.9272727 C390.021957,11.2844437 389.898457,10.5990196 389.909091,9.90909091 L389.909091,9.90909091 Z M391.036364,9.90909091 C391.022319,10.4626525 391.121305,11.013264 391.327273,11.5272727 C391.490283,11.9575141 391.751816,12.3435859 392.090909,12.6545455 C392.421103,12.9704701 392.819107,13.2067851 393.254545,13.3454545 C393.696937,13.5076479 394.165214,13.5877479 394.636364,13.5818182 C395.12362,13.5847228 395.608311,13.5110988 396.072727,13.3636364 C396.49392,13.2173362 396.878474,12.9816417 397.2,12.6727273 C397.539093,12.3617677 397.800626,11.9756959 397.963636,11.5454545 C398.154155,11.0213479 398.246603,10.4666571 398.236364,9.90909091 C398.251962,9.35541174 398.152919,8.80448698 397.945455,8.29090909 C397.778077,7.85766539 397.517359,7.46658921 397.181818,7.14545455 C396.849698,6.84568081 396.459941,6.61677573 396.036364,6.47272727 C395.588038,6.30914092 395.113546,6.22903195 394.636364,6.23636364 C394.147208,6.22745151 393.660507,6.30754157 393.2,6.47272727 C392.776423,6.61677573 392.386665,6.84568081 392.054545,7.14545455 C391.724649,7.46764328 391.470086,7.85880081 391.309091,8.29090909 C391.116664,8.80820154 391.024119,9.35730324 391.036364,9.90909091 Z M392.854545,7.58181818 C393.117554,7.51894211 393.38501,7.47639233 393.654545,7.45454545 C393.981585,7.43706984 394.309324,7.43706984 394.636364,7.45454545 C395.087074,7.43514492 395.534225,7.54220925 395.927273,7.76363636 C396.290457,7.99389089 396.494081,8.40816207 396.454545,8.83636364 C396.472239,9.16741429 396.338434,9.48854798 396.090909,9.70909091 C395.835484,9.91129683 395.524973,10.0316989 395.2,10.0545455 L395.690909,10.2909091 L397.018182,12.2363636 L395.927273,12.2363636 L394.636364,10.4181818 L393.781818,10.1636364 L393.781818,12.2 L392.727273,12.2 L392.854545,7.58181818 Z M394.436364,8.21818182 L394.072727,8.21818182 C393.977138,8.19504056 393.877407,8.19504056 393.781818,8.21818182 L393.781818,9.47272727 L394.381818,9.47272727 C394.663543,9.48234431 394.943645,9.42632386 395.2,9.30909091 C395.389913,9.19639909 395.496522,8.98318208 395.472727,8.76363636 C395.418182,8.41818182 395.072727,8.21818182 394.381818,8.21818182 L394.436364,8.21818182 Z" id="Shape" fill="#4B616F"></path>
            </g>
        </g>
    </g>
</svg>