<svg width="21" height="20" viewBox="0 0 21 20" fill="none" xmlns="http://www.w3.org/2000/svg">
<path d="M7.68754 5.71087L9.97754 3.41087V13.0009C9.97754 13.2661 10.0829 13.5204 10.2704 13.708C10.458 13.8955 10.7123 14.0009 10.9775 14.0009C11.2428 14.0009 11.4971 13.8955 11.6846 13.708C11.8722 13.5204 11.9775 13.2661 11.9775 13.0009V3.41087L14.2675 5.71087C14.3605 5.8046 14.4711 5.879 14.593 5.92976C14.7148 5.98053 14.8455 6.00667 14.9775 6.00667C15.1096 6.00667 15.2403 5.98053 15.3621 5.92976C15.484 5.879 15.5946 5.8046 15.6875 5.71087C15.7813 5.61791 15.8557 5.50731 15.9064 5.38545C15.9572 5.26359 15.9833 5.13288 15.9833 5.00087C15.9833 4.86886 15.9572 4.73816 15.9064 4.6163C15.8557 4.49444 15.7813 4.38384 15.6875 4.29087L11.6875 0.290873C11.5924 0.199832 11.4803 0.128467 11.3575 0.0808729C11.1141 -0.0191451 10.841 -0.0191451 10.5975 0.0808729C10.4748 0.128467 10.3626 0.199832 10.2675 0.290873L6.26754 4.29087C6.1743 4.38411 6.10034 4.4948 6.04988 4.61662C5.99942 4.73845 5.97345 4.86901 5.97345 5.00087C5.97345 5.13273 5.99942 5.2633 6.04988 5.38512C6.10034 5.50694 6.1743 5.61763 6.26754 5.71087C6.36078 5.80411 6.47147 5.87807 6.59329 5.92853C6.71511 5.97899 6.84568 6.00496 6.97754 6.00496C7.1094 6.00496 7.23997 5.97899 7.36179 5.92853C7.48361 5.87807 7.5943 5.80411 7.68754 5.71087ZM19.9775 10.0009C19.7123 10.0009 19.458 10.1062 19.2704 10.2938C19.0829 10.4813 18.9775 10.7357 18.9775 11.0009V17.0009C18.9775 17.2661 18.8722 17.5204 18.6846 17.708C18.4971 17.8955 18.2428 18.0009 17.9775 18.0009H3.97754C3.71232 18.0009 3.45797 17.8955 3.27043 17.708C3.0829 17.5204 2.97754 17.2661 2.97754 17.0009V11.0009C2.97754 10.7357 2.87218 10.4813 2.68465 10.2938C2.49711 10.1062 2.24276 10.0009 1.97754 10.0009C1.71232 10.0009 1.45797 10.1062 1.27043 10.2938C1.0829 10.4813 0.977539 10.7357 0.977539 11.0009V17.0009C0.977539 17.7965 1.29361 18.5596 1.85622 19.1222C2.41883 19.6848 3.18189 20.0009 3.97754 20.0009H17.9775C18.7732 20.0009 19.5363 19.6848 20.0989 19.1222C20.6615 18.5596 20.9775 17.7965 20.9775 17.0009V11.0009C20.9775 10.7357 20.8722 10.4813 20.6846 10.2938C20.4971 10.1062 20.2428 10.0009 19.9775 10.0009Z" fill="black"/>
</svg>
