<?xml version="1.0" encoding="UTF-8"?>
<svg width="46px" height="44px" viewBox="0 0 46 44" version="1.1" xmlns="http://www.w3.org/2000/svg" xmlns:xlink="http://www.w3.org/1999/xlink">
    <title>logo1</title>
    <defs>
        <linearGradient x1="47.2276265%" y1="84.8312072%" x2="52.6264591%" y2="7.13261887%" id="linearGradient-1">
            <stop stop-color="#F6CD10" offset="44%"></stop>
            <stop stop-color="#F6C417" offset="75%"></stop>
            <stop stop-color="#F7B920" offset="100%"></stop>
        </linearGradient>
        <linearGradient x1="0%" y1="50.030581%" x2="100%" y2="50.030581%" id="linearGradient-2">
            <stop stop-color="#FAE410" offset="0%"></stop>
            <stop stop-color="#F6CD10" offset="58%"></stop>
            <stop stop-color="#F7B920" offset="91%"></stop>
        </linearGradient>
        <linearGradient x1="0%" y1="50.0372301%" x2="100%" y2="50.0372301%" id="linearGradient-3">
            <stop stop-color="#F6CD10" offset="20%"></stop>
            <stop stop-color="#F7B920" offset="100%"></stop>
        </linearGradient>
        <linearGradient x1="87.1809119%" y1="-18.514947%" x2="37.9863563%" y2="71.0221794%" id="linearGradient-4">
            <stop stop-color="#F6CD10" offset="24%"></stop>
            <stop stop-color="#F7B920" offset="100%"></stop>
        </linearGradient>
        <linearGradient x1="84.7077899%" y1="20.6185567%" x2="46.1846047%" y2="101.97221%" id="linearGradient-5">
            <stop stop-color="#FAE410" offset="0%"></stop>
            <stop stop-color="#F6CD10" offset="58%"></stop>
            <stop stop-color="#F7B920" offset="92%"></stop>
        </linearGradient>
        <linearGradient x1="70.4696439%" y1="107.48484%" x2="20.9833277%" y2="37.1662947%" id="linearGradient-6">
            <stop stop-color="#FAE410" offset="0%"></stop>
            <stop stop-color="#F6CD10" offset="59%"></stop>
            <stop stop-color="#F7B920" offset="93%"></stop>
        </linearGradient>
    </defs>
    <g id="logo1" stroke="none" stroke-width="1" fill="none" fill-rule="evenodd">
        <g id="RenovaLogo" transform="translate(1.000000, 2.000000)" fill-rule="nonzero">
            <polygon id="Path" fill="url(#linearGradient-1)" points="15.2296296 23.0148148 6.93333333 28.2962963 0 17.2962963 2.22962963 13.6666667 9.65925926 13.6666667"></polygon>
            <polygon id="Path" fill="url(#linearGradient-2)" points="3.24444444 12.1111111 22.4740741 12.1111111 15.2222222 0 15.2222222 2.20740741 9.53333333 2.20740741"></polygon>
            <polygon id="Path" fill="url(#linearGradient-3)" points="23.5555556 12.0962963 23.5037037 2.17777778 36.5111111 2.16296296 38.3925926 6.17777778 34.6666667 12.1111111"></polygon>
            <polygon id="Path" fill="url(#linearGradient-4)" points="28.8296296 24.5555556 37.237037 28.8296296 31.5259259 39.9037037 26.8148148 39.9185185 23.2666667 33.962963"></polygon>
            <polygon id="Path" fill="url(#linearGradient-5)" points="39.1703704 7.14074074 29.3407407 23.6666667 43.4518519 23.6296296 41.5555556 22.5037037 44.4666667 17.6074074"></polygon>
            <polygon id="Path" fill="url(#linearGradient-6)" points="25.2296296 39.9185185 15.5777778 23.6666667 8.36296296 35.762963 10.7777778 34.962963 13.7111111 39.9185185"></polygon>
        </g>
    </g>
</svg>