<?xml version="1.0" encoding="UTF-8"?>
<svg width="115px" height="44px" viewBox="0 0 115 44" version="1.1" xmlns="http://www.w3.org/2000/svg" xmlns:xlink="http://www.w3.org/1999/xlink">
    <title>logo2</title>
    <g id="logo2" stroke="none" stroke-width="1" fill="none" fill-rule="evenodd">
        <g id="RenovaLogo" transform="translate(3.000000, 3.000000)" fill="#4B616F" fill-rule="nonzero">
            <polygon id="Path" points="0.77037037 29.437037 1.87407407 29.437037 1.87407407 38.7481481 0.77037037 38.7481481"></polygon>
            <polygon id="Path" points="10.3259259 32.6518519 9.58518519 31.3111111 9.52592593 31.3111111 9.65925926 32.6518519 9.65925926 38.7481481 8.62222222 38.7481481 8.62222222 29.2888889 9.22222222 29.2888889 13.6666667 35.5037037 14.4074074 36.7777778 14.4740741 36.7777778 14.3259259 35.5037037 14.3259259 29.437037 15.3703704 29.437037 15.3703704 38.8888889 14.7777778 38.8888889"></polygon>
            <path d="M21.8518519,29.437037 C22.0222222,29.437037 22.2148148,29.3925926 22.4222222,29.3777778 L23.0740741,29.3777778 L23.7333333,29.3777778 L24.3407407,29.3777778 C25.0020235,29.3628465 25.6595405,29.48125 26.2740741,29.7259259 C26.7942226,29.9379328 27.2581987,30.2675333 27.6296296,30.6888889 C27.9928941,31.1218255 28.2604785,31.6267018 28.4148148,32.1703704 C28.5981591,32.7880854 28.6880431,33.4297574 28.6814815,34.0740741 C28.681455,34.6877204 28.5967042,35.2984248 28.4296296,35.8888889 C28.2766582,36.4518155 28.0121672,36.9782785 27.6518519,37.437037 C27.2712122,37.8790096 26.7949932,38.2285745 26.2592593,38.4592593 C25.6096393,38.748326 24.9033168,38.8875652 24.1925926,38.8666667 L23.6444444,38.8666667 L22.9407407,38.8666667 L22.2814815,38.8666667 C22.1334669,38.8755636 21.9850516,38.8755636 21.837037,38.8666667 L21.8518519,29.437037 Z M24.3703704,30.3111111 L23.9925926,30.3111111 L23.5851852,30.3111111 L23.2148148,30.3111111 L22.9555556,30.3111111 L22.9555556,37.8296296 L23.2148148,37.8296296 L23.6,37.8296296 L23.9851852,37.8296296 L24.237037,37.8296296 C24.7758642,37.8483306 25.3114625,37.7391802 25.8,37.5111111 C26.2028782,37.3142101 26.5494227,37.018628 26.8074074,36.6518519 C27.0685316,36.2797974 27.2524028,35.8591606 27.3481481,35.4148148 C27.4549551,34.9407124 27.5096008,34.4563524 27.5111111,33.9703704 C27.5086185,33.5293011 27.4589532,33.0897638 27.362963,32.6592593 C27.2708935,32.2360985 27.1000192,31.8340414 26.8592593,31.4740741 C26.6079725,31.1113986 26.27576,30.8121538 25.8888889,30.6 C25.4150797,30.3774889 24.8927862,30.2781258 24.3703704,30.3111111 L24.3703704,30.3111111 Z" id="Shape"></path>
            <path d="M40.1555556,29.437037 L41.2222222,29.437037 L41.2222222,35.6444444 C41.2365702,36.1475412 41.1613244,36.64918 41,37.1259259 C40.869575,37.5035779 40.6570722,37.8476301 40.3777778,38.1333333 C40.0984122,38.3956277 39.7645214,38.5929268 39.4,38.7111111 C38.9894194,38.8358584 38.5624422,38.898282 38.1333333,38.8962963 C37.2410451,38.9619565 36.3556191,38.6984368 35.6444444,38.1555556 C35.0480079,37.5614078 34.7420633,36.7356283 34.8074074,35.8962963 L34.8074074,29.437037 L35.8888889,29.437037 L35.8888889,35.362963 C35.8832315,35.7649492 35.9305521,36.1659293 36.0296296,36.5555556 C36.1092625,36.8458134 36.2536158,37.11426 36.4518519,37.3407407 C36.6416848,37.5432369 36.8820183,37.6915278 37.1481481,37.7703704 C37.4653933,37.8642977 37.7951149,37.9092598 38.1259259,37.9037037 C38.7040109,37.9586661 39.2744031,37.7392844 39.6666667,37.3111111 C40.0281916,36.7290254 40.1918839,36.0456751 40.1333333,35.362963 L40.1555556,29.437037 Z" id="Path"></path>
            <path d="M51.9407407,36.3777778 C51.9533288,36.0421257 51.83363,35.714949 51.6074074,35.4666667 C51.3669804,35.2150281 51.0866704,35.0047956 50.7777778,34.8444444 C50.4262482,34.6507086 50.0625216,34.4799798 49.6888889,34.3333333 C49.3111173,34.1749903 48.9490365,33.9815499 48.6074074,33.7555556 C48.2792478,33.5299081 47.9975822,33.2432128 47.7777778,32.9111111 C47.5419339,32.5319659 47.4257762,32.0905665 47.4444444,31.6444444 C47.4112032,30.9855474 47.6846824,30.3483409 48.1851852,29.9185185 C48.8038404,29.4534806 49.5683563,29.224914 50.3407407,29.2740741 C50.8370105,29.2721549 51.3325694,29.3117996 51.8222222,29.3925926 C52.1807813,29.4471471 52.5298818,29.5518772 52.8592593,29.7037037 L52.5333333,30.6888889 C52.2444265,30.5575994 51.9411208,30.460641 51.6296296,30.4 C51.19239,30.3000709 50.7447635,30.2528215 50.2962963,30.2592593 C49.8236714,30.2254217 49.3549151,30.3649952 48.9777778,30.6518519 C48.7027946,30.8810297 48.5428855,31.2198202 48.5407407,31.5777778 C48.5302055,31.8998356 48.6504421,32.2124509 48.8740741,32.4444444 C49.1167627,32.6915086 49.3967094,32.8989691 49.7037037,33.0592593 C50.037037,33.2444444 50.4,33.4222222 50.7851852,33.6 C51.1656914,33.7721843 51.5300958,33.9779364 51.8740741,34.2148148 C52.1988891,34.4444206 52.4798823,34.7304316 52.7037037,35.0592593 C52.9347298,35.4240817 53.0508573,35.8498828 53.037037,36.2814815 C53.0417751,36.6530241 52.9685974,37.021436 52.8222222,37.362963 C52.6779109,37.6835726 52.4595853,37.965365 52.1851852,38.1851852 C51.8892737,38.4256508 51.5497301,38.6067406 51.1851852,38.7185185 C50.7531267,38.849443 50.3032366,38.9119277 49.8518519,38.9037037 C49.300004,38.9126954 48.7487624,38.8630339 48.2074074,38.7555556 C47.856992,38.6819881 47.5163998,38.5676286 47.1925926,38.4148148 L47.5703704,37.4296296 C47.8575585,37.573854 48.1609406,37.6832705 48.4740741,37.7555556 C48.9115604,37.8702649 49.3625877,37.9250859 49.8148148,37.9185185 C50.0933758,37.9189375 50.3712876,37.8916426 50.6444444,37.837037 C50.8795601,37.7843094 51.1030103,37.6889037 51.3037037,37.5555556 C51.4859325,37.4302468 51.6377948,37.2657294 51.7481481,37.0740741 C51.8718365,36.8626862 51.9382211,36.6226804 51.9407407,36.3777778 L51.9407407,36.3777778 Z" id="Path"></path>
            <polygon id="Path" points="65.0666667 30.4222222 62.1703704 30.4222222 62.1703704 38.7481481 61.0740741 38.7481481 61.0740741 30.4222222 58.1703704 30.4222222 58.1703704 29.437037 65.0740741 29.437037"></polygon>
            <path d="M70.7037037,29.5259259 C71.037037,29.4666667 71.4444444,29.4222222 71.8666667,29.3851852 C72.2888889,29.3481481 72.7037037,29.325852 73.0666667,29.325852 C73.4582542,29.3237758 73.8486896,29.3685391 74.2296296,29.4592593 C74.5792765,29.5418325 74.9090885,29.6928915 75.2,29.9037037 C75.4842471,30.1108359 75.7152703,30.3824786 75.8740741,30.6962963 C76.3020902,31.6732865 76.171951,32.8049319 75.5333333,33.6592593 C75.1431701,34.1044656 74.6262526,34.4197854 74.0518519,34.562963 L74.6888889,35.0518519 L77,38.7555556 L75.6666667,38.7555556 L73.1037037,34.7333333 L71.8,34.5555556 L71.8,38.7703704 L70.7037037,38.7703704 L70.7037037,29.5259259 Z M73.0962963,30.2666667 L72.7407407,30.2666667 C72.6198758,30.2589596 72.4986427,30.2589596 72.3777778,30.2666667 L72.0518519,30.2666667 C71.9687128,30.2701567 71.8864541,30.2851128 71.8074074,30.3111111 L71.8074074,33.8148148 L72.8444444,33.8148148 C73.3744892,33.8309489 73.8951073,33.6721604 74.3259259,33.362963 C74.7454317,33.0179831 74.9695402,32.4895297 74.9259259,31.9481481 C74.9387658,31.5037294 74.7608261,31.0750564 74.437037,30.7703704 C74.0670069,30.4412729 73.5836799,30.2686561 73.0888889,30.2888889 L73.0962963,30.2666667 Z" id="Shape"></path>
            <polygon id="Path" points="83.1185185 29.437037 84.2222222 29.437037 84.2222222 38.7481481 83.1185185 38.7481481"></polygon>
            <path d="M95.4074074,36.162963 L91.9925926,36.162963 L91.0666667,38.7481481 L89.962963,38.7481481 L93.4888889,29.2888889 L93.9925926,29.2888889 L97.5333333,38.7481481 L96.362963,38.7481481 L95.4074074,36.162963 Z M92.3555556,35.2074074 L95.0814815,35.2074074 L94.0444444,32.3777778 L93.7185185,30.962963 L93.7185185,30.962963 L93.3851852,32.4 L92.3555556,35.2074074 Z" id="Shape"></path>
            <polygon id="Path" points="108.533333 38.7481481 103.02963 38.7481481 103.02963 29.437037 104.133333 29.437037 104.133333 37.762963 108.533333 37.762963"></polygon>
            <path d="M18.7185185,23.762963 L12.0518519,23.762963 L7.24444444,15.4814815 L6.44444444,15.3407407 L6.44444444,23.762963 L0.681481481,23.762963 L0.681481481,1.4962963 L1.37037037,1.37777778 C1.83703704,1.2962963 2.34074074,1.22222222 2.85185185,1.14814815 C3.36296296,1.07407407 3.94074074,1.01481481 4.48888889,0.977777778 C5.03703704,0.940740741 5.54814815,0.903703704 6.05925926,0.888888889 C7.54549106,0.798261988 9.03722443,0.882793546 10.5037037,1.14074074 C11.4931822,1.3146699 12.4438078,1.66331623 13.3111111,2.17037037 C14.193563,2.67349665 14.929026,3.39874486 15.4444444,4.27407407 C15.9931176,5.28672689 16.2640173,6.42654996 16.2296296,7.57777778 C16.2952331,9.24711874 15.8169215,10.8926147 14.8666667,12.2666667 C14.3045688,13.0339017 13.5879346,13.6748351 12.762963,14.1481481 L13.0740741,14.3481481 L18.7185185,23.762963 Z M6.44444444,10.7333333 L7.34814815,10.7333333 C8.13548209,10.7802917 8.91638923,10.5668437 9.57037037,10.1259259 C10.0935405,9.63300028 10.351898,8.92114288 10.2666667,8.20740741 C10.306461,7.65331047 10.0973941,7.11027939 9.6962963,6.72592593 C9.15617071,6.3158038 8.48317013,6.12050167 7.80740741,6.17777778 C7.4,6.17777778 7,6.17777778 6.6,6.17777778 L6.45185185,6.17777778 L6.44444444,10.7333333 Z" id="Shape"></path>
            <polygon id="Path" points="33.2296296 23.762963 18.9925926 23.762963 18.9925926 1.15555556 33.0666667 1.15555556 33.0666667 6.46666667 24.7777778 6.46666667 24.7777778 9.68148148 32.3481481 9.68148148 32.3481481 14.9925926 24.7777778 14.9925926 24.7777778 18.4518519 33.2518519 18.4518519"></polygon>
            <polygon id="Path" points="52.6518519 23.9111111 48.4 23.9111111 40.4592593 12.7481481 40.4592593 23.762963 34.9111111 23.762963 34.9111111 1.00740741 39.162963 1.00740741 47.0962963 12.1777778 47.0962963 1.15555556 52.6518519 1.15555556"></polygon>
            <path d="M63.9407407,24.1851852 C62.4606502,24.2163419 60.9916867,23.9230549 59.637037,23.3259259 C58.4227663,22.7728696 57.3641636,21.9280232 56.5555556,20.8666667 C55.7347018,19.7562582 55.1337845,18.4991091 54.7851852,17.162963 C54.3911312,15.6366508 54.199366,14.0651721 54.2148148,12.4888889 C54.2148148,8.78518519 55.0592593,5.92592593 56.7111111,3.8962963 C58.362963,1.86666667 60.837037,0.762962963 63.9407407,0.762962963 C65.4086913,0.733866694 66.8651511,1.02718151 68.2074074,1.62222222 C69.4235604,2.1789267 70.486164,3.0229085 71.3037037,4.08148148 C72.1349508,5.18760614 72.741435,6.4458722 73.0888889,7.78518519 C73.4824381,9.31159288 73.6741952,10.8830047 73.6592593,12.4592593 C73.6592593,16.162963 72.8148148,19.0222222 71.1481481,21.0518519 C69.4814815,23.0814815 67,24.1851852 63.9407407,24.1851852 Z M63.9407407,6.05185185 C62.8596556,6.00151172 61.833116,6.52888236 61.2444444,7.43703704 C60.5481481,8.45925926 60.1925926,10.1481481 60.1925926,12.4592593 C60.1839624,13.3838979 60.2683375,14.3070608 60.4444444,15.2148148 C60.5826787,15.9285615 60.8326662,16.6160269 61.1851852,17.2518519 C61.4612414,17.7413533 61.8528755,18.1558751 62.3259259,18.4592593 C62.8197234,18.7463272 63.3847611,18.8875867 63.9555556,18.8666667 C65.02324,18.9152604 66.039207,18.4044704 66.637037,17.5185185 C67.3333333,16.5259259 67.6888889,14.8222222 67.6888889,12.4592593 C67.6945397,11.5596207 67.6126728,10.6615654 67.4444444,9.77777778 C67.3207317,9.05598738 67.0832073,8.35841544 66.7407407,7.71111111 C66.4794362,7.20783903 66.0913464,6.78145093 65.6148148,6.47407407 C65.1087406,6.1759154 64.5276854,6.02936607 63.9407407,6.05185185 Z" id="Shape"></path>
            <polygon id="Path" points="84.237037 23.9111111 80.1481481 23.9111111 71.6888889 1.15555556 78.237037 1.15555556 82.4740741 13.5851852 86.5259259 1.15555556 92.637037 1.15555556"></polygon>
            <path d="M108.718519,23.762963 L102.644444,23.762963 L100.97037,19.1259259 L95.7185185,19.1259259 L94.1259259,23.762963 L88.2592593,23.762963 L96.4074074,1.00740741 L100.6,1.00740741 L108.718519,23.762963 Z M97.3185185,14.1703704 L99.5037037,14.1703704 L98.4,10.8518519 L97.3185185,14.1703704 Z" id="Shape"></path>
            <path d="M105.851852,3.03703704 C105.846244,2.75515124 105.899213,2.47517052 106.007407,2.21481481 C106.099802,1.98455698 106.241373,1.77725736 106.422222,1.60740741 C106.602036,1.4463729 106.810624,1.32071752 107.037037,1.23703704 C107.275013,1.15332074 107.525506,1.11073686 107.777778,1.11110867 C108.029907,1.1123995 108.280127,1.15493684 108.518519,1.23703704 C108.743525,1.31903385 108.949993,1.44492902 109.125926,1.60740741 C109.306775,1.77725736 109.448346,1.98455698 109.540741,2.21481481 C109.642906,2.47670813 109.693221,2.75595496 109.688889,3.03703704 C109.694497,3.31892283 109.641527,3.59890355 109.533333,3.85925926 C109.443583,4.08878579 109.301551,4.2942243 109.118519,4.45925926 C108.940522,4.62273831 108.731428,4.74869888 108.503704,4.82962963 C108.267123,4.91936677 108.015986,4.96457157 107.762963,4.96296296 C107.509984,4.96406567 107.258938,4.91887735 107.022222,4.82962963 C106.79585,4.75049539 106.588828,4.62426283 106.414815,4.45925926 C106.234122,4.29218072 106.092489,4.08731827 106,3.85925926 C105.897834,3.59736595 105.84752,3.31811912 105.851852,3.03703704 L105.851852,3.03703704 Z M106.311111,3.03703704 C106.305389,3.26256212 106.345717,3.48688533 106.42963,3.6962963 C106.496041,3.87157983 106.602592,4.02886833 106.740741,4.15555556 C106.875264,4.28426559 107.037414,4.38054206 107.214815,4.43703704 C107.395048,4.50311581 107.585828,4.53574913 107.777778,4.53333333 C107.97629,4.53451668 108.173756,4.50452174 108.362963,4.44444444 C108.53456,4.38484068 108.69123,4.28881697 108.822222,4.16296296 C108.960371,4.03627574 109.066922,3.87898723 109.133333,3.7037037 C109.210952,3.49017879 109.248616,3.26419365 109.244444,3.03703704 C109.250799,2.81146404 109.210449,2.58701321 109.125926,2.37777778 C109.057735,2.20127109 108.951517,2.04194375 108.814815,1.91111111 C108.679507,1.78898107 108.520717,1.69572345 108.348148,1.63703704 C108.165497,1.57039074 107.972185,1.53775376 107.777778,1.54074074 C107.578492,1.53710987 107.380206,1.56973916 107.192593,1.63703704 C107.020024,1.69572345 106.861234,1.78898107 106.725926,1.91111111 C106.591524,2.04237319 106.487813,2.20173366 106.422222,2.37777778 C106.343826,2.58852655 106.306122,2.81223465 106.311111,3.03703704 Z M107.051852,2.08888889 C107.159003,2.06327271 107.267967,2.04593761 107.377778,2.03703704 C107.511016,2.02991734 107.644539,2.02991734 107.777778,2.03703704 C107.961401,2.02913311 108.143573,2.07275192 108.303704,2.16296296 C108.451668,2.25677036 108.534626,2.42554751 108.518519,2.6 C108.525727,2.73487249 108.471214,2.86570473 108.37037,2.95555556 C108.266308,3.03793574 108.139804,3.08698843 108.007407,3.0962963 L108.207407,3.19259259 L108.748148,3.98518519 L108.303704,3.98518519 L107.777778,3.24444444 L107.42963,3.14074074 L107.42963,3.97037037 L107,3.97037037 L107.051852,2.08888889 Z M107.696296,2.34814815 L107.548148,2.34814815 C107.509204,2.33872023 107.468573,2.33872023 107.42963,2.34814815 L107.42963,2.85925926 L107.674074,2.85925926 C107.788851,2.86317731 107.902967,2.84035416 108.007407,2.79259259 C108.084779,2.74668111 108.128213,2.65981492 108.118519,2.57037037 C108.096296,2.42962963 107.955556,2.34814815 107.674074,2.34814815 L107.696296,2.34814815 Z" id="Shape"></path>
        </g>
    </g>
</svg>